<svg width="472" height="64" viewBox="0 0 472 64" fill="none" xmlns="http://www.w3.org/2000/svg">
<path d="M59.7455 58.6319C56.2132 58.6319 53.4568 57.6549 51.4967 55.7212C49.5365 53.7875 48.5565 51.06 48.5565 47.5184V33.7181H43.1865V26.9807H43.7582C45.2896 26.9807 46.4738 26.5737 47.311 25.7798C48.1277 24.9657 48.5565 23.8054 48.5565 22.2789V19.8567H56.1724V26.9807H63.3799V33.7181H56.1724V47.1316C56.1724 48.1697 56.3561 49.0449 56.7237 49.7777C57.0912 50.5105 57.6629 51.06 58.4592 51.4468C59.2555 51.8335 60.256 52.0167 61.4811 52.0167C61.7465 52.0167 62.0732 52.0167 62.4407 51.9556C62.8082 51.9149 63.1553 51.8742 63.5025 51.8335V58.2858C62.9716 58.3673 62.3386 58.4487 61.6648 58.5097C60.9706 58.5912 60.3377 58.6319 59.766 58.6319H59.7455Z" fill="#EBF4FB"/>
<path d="M66.3174 58.2857V14.7476H73.9333V58.2857H66.3174Z" fill="#EBF4FB"/>
<path d="M87.5529 58.9796C85.3682 58.9796 83.4489 58.6133 81.8154 57.8805C80.182 57.1478 78.9161 56.1097 78.0381 54.7459C77.1601 53.3822 76.7109 51.7945 76.7109 50.0033C76.7109 48.2122 77.0989 46.7263 77.8952 45.3625C78.6915 43.9988 79.8757 42.8589 81.5092 41.943C83.1222 41.027 85.164 40.3757 87.6346 39.989L97.8436 38.3199V44.0802L89.0638 45.6271C87.5733 45.8918 86.4503 46.3599 85.7153 47.0316C84.9802 47.7033 84.6127 48.5989 84.6127 49.698C84.6127 50.7972 85.0211 51.6317 85.8582 52.2627C86.6749 52.8937 87.7163 53.2193 88.9413 53.2193C90.5135 53.2193 91.9224 52.8937 93.127 52.222C94.3317 51.5503 95.2709 50.614 95.9243 49.4334C96.5777 48.2529 96.9044 46.9502 96.9044 45.5864V37.465C96.9044 36.1216 96.3939 35.0021 95.3526 34.1065C94.3113 33.2109 92.9228 32.7631 91.2077 32.7631C89.5947 32.7631 88.1655 33.2109 86.8995 34.0862C85.654 34.9614 84.7352 36.1013 84.1635 37.4854L77.9973 34.4933C78.6098 32.8446 79.5899 31.4198 80.9171 30.1985C82.2442 28.9772 83.8164 28.0409 85.6132 27.3489C87.4304 26.6568 89.3905 26.3108 91.4936 26.3108C94.0663 26.3108 96.3327 26.7789 98.2928 27.7152C100.253 28.6515 101.784 29.9746 102.887 31.664C103.989 33.3534 104.541 35.2871 104.541 37.465V58.2876H97.3944V52.9344L99.0074 52.8733C98.1907 54.176 97.2311 55.2955 96.0876 56.2114C94.9442 57.1274 93.6783 57.8194 92.2695 58.2876C90.8606 58.7557 89.2884 58.9796 87.5733 58.9796H87.5529Z" fill="#EBF4FB"/>
<path d="M120.547 58.9797C117.199 58.9797 114.279 58.1858 111.808 56.5982C109.317 55.0105 107.602 52.853 106.643 50.1255L112.36 47.4183C113.176 49.1892 114.299 50.5733 115.729 51.5706C117.178 52.568 118.771 53.0565 120.547 53.0565C121.895 53.0565 122.977 52.7512 123.773 52.1406C124.59 51.5299 124.978 50.7158 124.978 49.7184C124.978 49.1078 124.815 48.5989 124.488 48.1918C124.161 47.7847 123.732 47.4387 123.181 47.1537C122.65 46.8688 122.017 46.6245 121.344 46.4413L116.198 44.9962C113.585 44.2634 111.584 43.1032 110.216 41.5156C108.848 39.9279 108.174 38.0553 108.174 35.8977C108.174 33.9844 108.664 32.295 109.644 30.8702C110.624 29.4454 111.992 28.3055 113.748 27.5117C115.504 26.6975 117.505 26.3108 119.771 26.3108C122.732 26.3108 125.345 27.0232 127.612 28.448C129.878 29.8728 131.491 31.8676 132.451 34.4322L126.673 37.1393C126.142 35.7145 125.223 34.595 123.957 33.7809C122.691 32.9667 121.262 32.5392 119.69 32.5392C118.424 32.5392 117.423 32.8242 116.688 33.3738C115.953 33.9233 115.586 34.6968 115.586 35.6535C115.586 36.1827 115.749 36.6712 116.055 37.0986C116.362 37.5261 116.79 37.8721 117.362 38.1367C117.913 38.4013 118.567 38.6456 119.302 38.8898L124.325 40.3757C126.897 41.1492 128.898 42.289 130.307 43.836C131.716 45.3625 132.41 47.2555 132.41 49.4741C132.41 51.3467 131.9 53.0158 130.92 54.4406C129.919 55.8858 128.531 57.0053 126.775 57.7991C124.998 58.6133 122.936 59 120.547 59V58.9797Z" fill="#EBF4FB"/>
<path d="M163.607 58.979C160.523 58.979 157.685 58.4295 155.072 57.31C152.458 56.1905 150.192 54.6436 148.273 52.6488C146.353 50.6541 144.842 48.3133 143.74 45.6265C142.637 42.9398 142.086 40.0087 142.086 36.8334C142.086 33.6581 142.617 30.7067 143.699 27.9996C144.781 25.2925 146.292 22.9517 148.232 20.9773C150.171 19.0029 152.438 17.4764 155.031 16.3772C157.624 15.2781 160.483 14.7285 163.607 14.7285C166.73 14.7285 169.446 15.2374 171.896 16.2755C174.346 17.3135 176.409 18.6773 178.103 20.387C179.798 22.0968 181.003 23.9694 181.738 26.0049L174.694 29.343C173.877 27.1651 172.529 25.3739 170.59 23.9694C168.67 22.565 166.343 21.8729 163.607 21.8729C160.871 21.8729 158.543 22.5039 156.481 23.7659C154.418 25.0279 152.826 26.7783 151.682 28.997C150.539 31.2156 149.988 33.821 149.988 36.8131C149.988 39.8052 150.559 42.4309 151.682 44.6699C152.826 46.9089 154.418 48.6594 156.481 49.9417C158.543 51.2037 160.911 51.8346 163.607 51.8346C166.302 51.8346 168.67 51.1426 170.59 49.7381C172.509 48.3337 173.877 46.5628 174.694 44.4256L181.738 47.7027C181.003 49.7381 179.798 51.6107 178.103 53.3205C176.409 55.0303 174.346 56.394 171.896 57.4321C169.446 58.4702 166.69 58.979 163.607 58.979Z" fill="#EBF4FB"/>
<path d="M184.497 58.2857V14.7476H192.113V58.2857H184.497Z" fill="#EBF4FB"/>
<path d="M211.509 58.9761C208.467 58.9761 205.69 58.2637 203.178 56.8389C200.667 55.4141 198.646 53.4804 197.155 51.0379C195.665 48.575 194.909 45.7864 194.909 42.6315C194.909 39.4765 195.665 36.688 197.155 34.2251C198.646 31.7622 200.647 29.8285 203.158 28.4241C205.649 26.9993 208.446 26.2869 211.529 26.2869C214.613 26.2869 217.451 26.9993 219.962 28.4241C222.453 29.8489 224.454 31.7622 225.945 34.2047C227.415 36.6473 228.17 39.4562 228.17 42.6315C228.17 45.8068 227.415 48.575 225.924 51.0379C224.434 53.5007 222.433 55.4344 219.921 56.8389C217.43 58.2637 214.633 58.9761 211.55 58.9761H211.509ZM211.509 52.0759C213.245 52.0759 214.755 51.6688 216.042 50.875C217.328 50.0608 218.349 48.9413 219.105 47.5165C219.86 46.0714 220.228 44.4634 220.228 42.6518C220.228 40.8403 219.86 39.2323 219.105 37.8278C218.349 36.403 217.328 35.3039 216.042 34.4897C214.755 33.6755 213.245 33.2888 211.509 33.2888C209.773 33.2888 208.324 33.6959 207.017 34.4897C205.71 35.3039 204.689 36.403 203.934 37.8278C203.178 39.2526 202.811 40.8606 202.811 42.6518C202.811 44.443 203.178 46.0714 203.934 47.5165C204.689 48.9617 205.71 50.0812 207.017 50.875C208.324 51.6892 209.835 52.0759 211.509 52.0759Z" fill="#EBF4FB"/>
<path d="M242.137 58.9792C239.667 58.9792 237.563 58.45 235.787 57.3713C234.011 56.2925 232.643 54.8066 231.683 52.8933C230.723 50.98 230.233 48.741 230.233 46.156V27.0024H237.849V45.525C237.849 46.8277 238.115 47.9675 238.625 48.9445C239.136 49.9215 239.891 50.695 240.871 51.2446C241.851 51.7941 242.954 52.0791 244.199 52.0791C245.445 52.0791 246.527 51.7941 247.487 51.2446C248.446 50.695 249.202 49.9215 249.733 48.9242C250.263 47.9268 250.549 46.7462 250.549 45.3621V27.0024H258.104V58.2872H250.958V52.1402L251.529 53.2393C250.794 55.1526 249.61 56.5978 247.956 57.5544C246.302 58.5111 244.363 58.9996 242.137 58.9996V58.9792Z" fill="#EBF4FB"/>
<path d="M276.89 58.9777C273.848 58.9777 271.132 58.2653 268.723 56.8202C266.313 55.375 264.415 53.421 263.047 50.9174C261.658 48.4341 260.964 45.6659 260.964 42.6331C260.964 39.6003 261.658 36.8118 263.067 34.3489C264.476 31.886 266.375 29.932 268.743 28.4868C271.132 27.0213 273.827 26.3089 276.829 26.3089C279.218 26.3089 281.341 26.777 283.199 27.7133C285.057 28.6496 286.527 29.9727 287.609 31.6621L286.446 33.209V14.7476H294V58.2857H286.854V52.2404L287.671 53.7263C286.588 55.4564 285.098 56.7591 283.179 57.6343C281.259 58.5096 279.156 58.9574 276.89 58.9574V58.9777ZM277.686 52.0776C279.381 52.0776 280.892 51.6705 282.219 50.8767C283.546 50.0625 284.588 48.9634 285.343 47.5385C286.098 46.1137 286.466 44.4854 286.466 42.6535C286.466 40.8216 286.098 39.2339 285.343 37.8295C284.588 36.4047 283.546 35.3055 282.219 34.4914C280.892 33.6772 279.381 33.2904 277.686 33.2904C275.992 33.2904 274.481 33.6975 273.133 34.4914C271.785 35.3055 270.744 36.4047 269.989 37.8295C269.233 39.2543 268.866 40.8623 268.866 42.6535C268.866 44.4447 269.233 46.1341 269.989 47.5385C270.744 48.9634 271.785 50.0625 273.133 50.8767C274.481 51.6909 275.992 52.0776 277.686 52.0776Z" fill="#EBF4FB"/>
<path d="M24.3791 12L0 58.978C11.2912 54.5204 20.3976 53.8691 28.5852 54.2558L24.8487 46.0123C23.2153 45.8494 18.4783 45.8494 16.2323 46.4397L24.3791 28.3853C24.3791 28.3853 36.6299 54.9071 36.6503 54.9071C39.0188 55.2735 45.328 57.3904 48.7582 58.978L24.3791 12Z" fill="#EBF4FB"/>
<path fill-rule="evenodd" clip-rule="evenodd" d="M425.25 23.4028L452.032 61.3334H440.128L413.346 23.4028H425.25ZM425.24 44.4694L431.194 52.9068L425.245 61.3334H413.333L425.24 44.4694ZM466.666 6.88542V61.3334H456.909V20.7041L466.666 6.88542ZM466.666 2.66675L440.128 40.2534L434.173 31.8188L454.754 2.66675H466.666Z" fill="#EBF4FB"/>
<rect x="364.332" y="25.9976" width="2.35664" height="32.9929" transform="rotate(45 364.332 25.9976)" fill="#EBF4FB"/>
<rect x="365.998" y="49.3337" width="2.35664" height="32.9929" transform="rotate(135 365.998 49.3337)" fill="#EBF4FB"/>
</svg>
